HIERARCHY
ROOT root
{
	OFFSET 0.000000 0.000000 0.000000
	CHANNELS 6 Xposition Yposition Zposition Zrotation Yrotation Xrotation
	JOINT lhip
	{
		OFFSET 0.058581 -0.082280 -0.017664
		CHANNELS 3 Zrotation Yrotation Xrotation
		JOINT lknee
		{
			OFFSET 0.043451 -0.386469 0.008037
			CHANNELS 3 Zrotation Yrotation Xrotation
			JOINT lankle
			{
				OFFSET -0.014790 -0.426874 -0.037428
				CHANNELS 3 Zrotation Yrotation Xrotation
				JOINT ltoe
				{
					OFFSET 0.041054 -0.060286 0.122042
					CHANNELS 3 Zrotation Yrotation Xrotation
					End Site
					{
						OFFSET 0.000000 0.000000 0.000000
					}
				}
			}
		}
	}
	JOINT rhip
	{
		OFFSET -0.060310 -0.090513 -0.013543
		CHANNELS 3 Zrotation Yrotation Xrotation
		JOINT rknee
		{
			OFFSET -0.043257 -0.383688 -0.004843
			CHANNELS 3 Zrotation Yrotation Xrotation
			JOINT rankle
			{
				OFFSET 0.019056 -0.420046 -0.034562
				CHANNELS 3 Zrotation Yrotation Xrotation
				JOINT rtoe
				{
					OFFSET -0.034840 -0.062106 0.130323
					CHANNELS 3 Zrotation Yrotation Xrotation
					End Site
					{
						OFFSET 0.000000 0.000000 0.000000
					}
				}
			}
		}
	}
	JOINT lowerback
	{
		OFFSET 0.004439 0.124404 -0.038385
		CHANNELS 3 Zrotation Yrotation Xrotation
		JOINT upperback
		{
			OFFSET 0.004488 0.137956 0.026820
			CHANNELS 3 Zrotation Yrotation Xrotation
			JOINT chest
			{
				OFFSET -0.002265 0.056032 0.002855
				CHANNELS 3 Zrotation Yrotation Xrotation
				JOINT lowerneck
				{
					OFFSET -0.013390 0.211636 -0.033468
					CHANNELS 3 Zrotation Yrotation Xrotation
					JOINT upperneck
					{
						OFFSET 0.010113 0.088937 0.050410
						CHANNELS 3 Zrotation Yrotation Xrotation
						End Site
						{
							OFFSET 0.000000 0.000000 0.000000
						}
					}
				}
				JOINT lclavicle
				{
					OFFSET 0.071702 0.114000 -0.018898
					CHANNELS 3 Zrotation Yrotation Xrotation
					JOINT lshoulder
					{
						OFFSET 0.122921 0.045205 -0.019046
						CHANNELS 3 Zrotation Yrotation Xrotation
						JOINT lelbow
						{
							OFFSET 0.255332 -0.015649 -0.022946
							CHANNELS 3 Zrotation Yrotation Xrotation
							JOINT lwrist
							{
								OFFSET 0.265709 0.012698 -0.007375
								CHANNELS 3 Zrotation Yrotation Xrotation
								End Site
								{
									OFFSET 0.000000 0.000000 0.000000
								}
							}
						}
					}
				}
				JOINT rclavicle
				{
					OFFSET -0.082954 0.112472 -0.023707
					CHANNELS 3 Zrotation Yrotation Xrotation
					JOINT rshoulder
					{
						OFFSET -0.113228 0.046853 -0.008472
						CHANNELS 3 Zrotation Yrotation Xrotation
						JOINT relbow
						{
							OFFSET -0.260127 -0.014369 -0.031269
							CHANNELS 3 Zrotation Yrotation Xrotation
							JOINT rwrist
							{
								OFFSET -0.269108 0.006794 -0.006027
								CHANNELS 3 Zrotation Yrotation Xrotation
								End Site
								{
									OFFSET 0.000000 0.000000 0.000000
								}
							}
						}
					}
				}
			}
		}
	}
}
MOTION
Frames: 14
Frame Time: 0.033333
0.561051 0.424538 0.986898 -80.085671 -3.874655 96.658632 9.773641 -2.533445 2.531520 -10.635030 -13.944121 59.106143 -1.488304 8.372348 -13.900119 0.000000 -0.000000 0.000000 -5.215857 0.539468 -22.290531 3.392488 -2.285390 19.818393 2.263401 -4.542305 -7.843824 0.000000 -0.000000 0.000000 0.456801 -7.681702 16.441761 3.979541 -6.622069 4.605003 -0.547299 -5.701598 5.661451 0.853770 1.490410 9.575889 1.725964 -1.768059 7.815800 -19.141750 4.129945 2.607943 -52.534290 -15.930697 9.461645 9.378093 -53.860468 6.581173 0.016418 -2.168176 -20.521872 22.015774 -6.914832 -1.773175 59.251397 -1.453654 12.390741 -13.025546 36.183428 -0.855832 9.290426 -0.058334 -10.975468 
0.554548 0.428651 0.986193 -81.266378 -3.073140 95.280150 8.055003 -2.680926 -1.486239 -10.301928 -10.629231 64.200699 -0.712555 8.549696 -14.687355 0.000000 -0.000000 0.000000 -3.684650 1.308495 -20.270328 3.051086 -1.557932 19.459817 1.729523 -4.433060 -8.474021 0.000000 -0.000000 0.000000 0.581542 -6.646501 17.495211 4.159875 -6.495714 4.648581 -0.574476 -5.214391 5.832085 0.759964 0.951373 10.202778 1.752463 -1.996028 7.905598 -19.132522 3.743624 3.096765 -53.619369 -14.797224 9.678123 7.985633 -53.241860 9.151476 -0.366190 -2.094187 -19.624513 21.416977 -6.222512 -1.313766 59.941598 -0.939662 12.132689 -13.748500 36.976227 -1.316099 8.157674 0.117555 -12.345925 
0.548582 0.432797 0.985056 -82.224179 -2.582706 94.366809 6.285944 -3.197456 -6.108275 -9.977051 -7.448125 66.984465 -0.674190 8.493370 -15.419889 0.000000 -0.000000 0.000000 -2.436362 1.916463 -19.195798 2.571699 -0.923433 19.963852 1.399331 -4.348886 -9.406275 0.000000 -0.000000 0.000000 0.436475 -5.614571 18.259548 4.330645 -6.326023 4.028381 -0.613770 -4.893262 6.436942 0.827073 1.270831 10.420774 1.466332 -1.885584 8.163537 -19.536140 4.034390 2.951790 -54.354302 -13.430089 10.151997 6.736122 -51.900877 11.229349 -0.800781 -2.421450 -18.288914 21.457096 -6.254760 -1.457337 60.150649 -0.385164 12.393874 -14.440943 37.358454 -1.520093 8.498222 0.144404 -13.390845 
0.542460 0.435864 0.983843 -82.958424 -1.988536 93.178894 4.744741 -3.690479 -10.166607 -9.670033 -5.242835 67.399921 -0.324842 8.329680 -15.642185 0.000000 -0.000000 0.000000 -1.202832 2.210900 -17.748182 2.349468 -0.209298 20.479923 1.013823 -4.247933 -10.319006 0.000000 -0.000000 0.000000 0.588110 -4.677777 19.011991 4.439630 -6.235620 3.712827 -0.651368 -4.530943 6.617384 1.040319 0.738838 11.267595 1.534886 -2.062526 8.254584 -20.193209 4.401240 3.147663 -54.979659 -12.239242 10.111629 5.863526 -50.043875 12.480706 -2.049900 -1.928433 -17.278330 21.450241 -6.197859 -1.171201 60.082553 0.029175 12.271947 -14.795612 37.902217 -1.557385 8.431103 0.216897 -13.882146 
0.537453 0.438515 0.982723 -83.671337 -1.749651 92.475901 3.045337 -4.611337 -14.050452 -9.212142 -3.483242 65.280745 0.173770 8.178333 -16.092633 0.000000 -0.000000 0.000000 -0.457842 2.740143 -17.034871 2.004098 0.170074 21.278596 0.993378 -4.219522 -11.090446 0.000000 -0.000000 0.000000 0.407234 -3.663299 19.439907 4.461209 -6.082113 2.998703 -0.657212 -4.270716 7.151195 1.304647 0.674114 11.781476 1.546318 -2.185275 8.181961 -20.797499 4.963819 3.092815 -55.675793 -11.089780 10.289208 5.806869 -47.287611 12.894880 -2.567298 -1.699962 -15.772794 21.616950 -6.508880 -1.436075 60.085752 0.147180 12.643993 -15.258346 38.165569 -1.501665 8.694708 0.273518 -14.406979 
0.531519 0.440722 0.981301 -83.702283 -1.381330 91.602150 1.771598 -5.476066 -16.999617 -9.015539 -3.029030 61.195564 0.447138 7.756235 -16.787183 0.000000 -0.000000 0.000000 0.376037 2.680818 -15.692931 1.845791 0.404210 21.572614 0.762231 -4.373548 -11.959392 0.000000 -0.000000 0.000000 0.581166 -2.921050 19.463761 4.501311 -6.387182 2.981119 -0.721876 -4.121838 7.190355 1.573979 0.051860 12.577323 1.711772 -2.715690 8.479759 -21.323476 5.402881 3.716559 -56.348268 -9.945224 9.921663 6.827494 -44.906411 12.322663 -4.007068 -1.393192 -15.077811 21.447385 -6.710584 -1.136884 60.489035 0.363239 12.398686 -15.792686 38.239523 -1.126982 9.865038 0.581154 -14.918490 
0.528452 0.442427 0.980014 -83.653969 -1.002338 91.418794 0.857285 -6.953806 -19.851588 -8.933111 -2.968188 55.475124 0.917896 7.694320 -17.436609 0.000000 -0.000000 0.000000 0.943228 2.793579 -15.501235 2.048504 0.785772 22.042988 0.816711 -4.726067 -12.190857 0.000000 -0.000000 0.000000 0.708194 -2.481381 18.915967 4.531435 -6.475077 2.819503 -0.847743 -3.977891 8.001844 1.968512 0.899579 12.301031 1.338409 -2.732630 8.673402 -21.663236 6.235025 3.373285 -57.019337 -9.321804 10.085495 7.280407 -41.905238 10.962226 -3.766420 -1.498706 -14.688052 21.632638 -7.064072 -1.260891 60.676051 0.940634 13.099657 -16.318619 37.800925 -1.819345 8.711600 0.680807 -15.050945 
0.523814 0.443955 0.979658 -84.013432 -0.584079 90.438515 -0.185927 -7.365722 -20.130929 -8.981930 -4.687840 48.875519 1.708311 7.910183 -18.526012 0.000000 -0.000000 0.000000 1.782330 2.753247 -14.324856 2.021398 1.313576 22.574451 0.890730 -4.841573 -13.011917 0.000000 -0.000000 0.000000 0.654370 -2.186433 19.491855 4.388212 -6.353387 2.570649 -0.733909 -3.682889 7.834486 2.123317 0.074085 13.247538 1.791120 -3.517344 8.744967 -22.042385 6.651658 3.784440 -57.360254 -8.073717 9.478816 7.939814 -39.365965 9.825931 -3.555915 -0.861201 -14.309946 21.540831 -6.830576 -0.760121 60.935100 0.725832 12.705125 -16.546233 37.857765 -1.960471 9.038032 1.041010 -15.282757 
0.518986 0.445240 0.979005 -84.703737 -0.123906 89.635537 -0.865550 -7.778976 -19.466225 -8.633378 -6.452383 42.376225 2.612077 8.613046 -18.626178 0.000000 -0.000000 0.000000 2.570406 3.272392 -13.099424 2.088433 1.709749 22.679007 0.700114 -5.137241 -13.441859 0.000000 -0.000000 0.000000 0.610469 -1.715565 19.223443 4.173510 -6.071305 3.005861 -0.697375 -3.500010 8.234435 2.487988 0.421555 13.396084 1.682768 -3.525377 8.722690 -22.422784 6.971958 3.576779 -57.518975 -7.172504 9.234546 8.685965 -36.735291 8.087424 -3.735911 -0.816399 -14.202847 21.587780 -6.676772 -0.920955 61.146466 0.648981 13.033306 -16.635731 37.459399 -2.181354 8.939313 1.247811 -15.482476 
0.513500 0.446542 0.978349 -85.579595 0.410914 88.645900 -1.144543 -7.902975 -17.713658 -7.884155 -7.574525 36.376827 2.859333 9.400902 -19.300059 0.000000 -0.000000 0.000000 3.602256 3.693905 -11.813140 2.040488 2.314846 23.230943 0.455964 -5.407717 -14.234812 0.000000 -0.000000 0.000000 0.435406 -1.185327 18.948646 4.078800 -5.748871 3.508514 -0.524800 -3.355732 8.011173 2.653202 0.122171 14.617766 1.900444 -4.068169 8.940697 -22.540453 7.166108 4.110440 -57.901893 -6.224775 8.603895 9.452032 -34.283359 6.815862 -3.879054 -0.191987 -14.255357 21.356508 -6.435266 -0.294061 61.467900 0.409152 12.783600 -16.723850 37.367809 -1.835063 8.831038 1.199363 -15.683324 
0.508628 0.447770 0.977567 -85.729114 1.219266 88.009435 -1.013878 -7.772429 -15.736735 -7.231377 -9.034197 31.482568 2.738878 9.669292 -17.589436 0.000000 -0.000000 0.000000 4.712275 4.242063 -10.893545 2.091798 2.122439 23.577507 0.239511 -5.917207 -14.973164 0.000000 -0.000000 0.000000 0.485982 -1.531883 18.434472 4.007461 -5.476083 3.941544 -0.461643 -3.309544 8.293084 2.952937 0.854345 14.487243 1.356951 -3.709055 9.093955 -22.799433 7.890617 3.579020 -58.076328 -5.462213 8.273554 10.008755 -31.991515 5.760928 -4.767905 0.205567 -14.376201 21.573736 -6.756749 -0.795149 61.495478 0.237725 13.198667 -16.647958 37.134890 -1.407844 9.453214 1.319145 -15.606686 
0.503258 0.449044 0.975654 -85.648040 2.173081 87.758307 -0.669805 -7.213865 -13.799064 -6.770914 -11.188943 28.011966 4.742508 9.732709 -14.403031 0.000000 -0.000000 0.000000 5.876145 4.546055 -10.422589 2.379441 1.977431 24.066042 -0.483499 -6.510968 -15.476581 0.000000 -0.000000 0.000000 0.579925 -2.075140 17.348848 3.959378 -5.257000 4.085281 -0.418984 -3.391011 8.506670 3.108493 1.213467 14.889611 1.334190 -3.065658 9.427373 -22.947325 8.593974 3.760034 -57.858916 -4.716114 7.870708 9.936219 -30.724165 4.781635 -3.757876 0.807512 -14.315398 21.744733 -6.930949 -0.607732 61.293091 -0.024461 13.257350 -16.049753 36.984217 -1.188027 8.428752 1.389445 -15.566151 
0.495646 0.449336 0.974665 -86.107020 2.748484 86.508078 -0.789007 -5.465850 -10.086043 -5.790094 -12.851933 25.636924 5.310043 10.770503 -17.045799 0.000000 -0.000000 0.000000 6.790163 4.589742 -8.397758 2.513198 2.384556 23.989692 -0.499981 -6.696782 -16.269833 0.000000 -0.000000 0.000000 0.174001 -2.210851 17.052551 3.876720 -5.159184 4.701539 -0.206808 -3.379983 8.101523 3.391071 0.905640 15.795863 1.309649 -3.013161 9.770284 -23.135284 8.942826 4.067518 -57.837512 -3.912985 6.907111 10.106090 -29.353235 4.270484 -3.697547 0.964736 -14.278477 21.781019 -7.031660 -0.494889 61.296898 -0.445352 12.715482 -15.482251 36.601611 -0.643701 8.112716 1.402775 -15.496326 
0.487374 0.449042 0.974514 -85.714071 2.930862 85.259464 -1.076501 -4.334093 -6.292734 -4.882377 -14.465223 22.466228 5.762228 10.927761 -18.654168 0.000000 -0.000000 0.000000 7.306926 3.910940 -6.313393 2.482881 2.890730 23.803546 -0.483399 -7.098977 -16.990342 0.000000 -0.000000 0.000000 -0.626041 -2.243555 16.685696 3.887994 -5.554738 5.783684 0.092518 -3.439632 7.867739 3.763429 1.105809 15.696754 1.242334 -2.940309 9.700726 -23.319900 8.587543 4.195759 -57.755243 -3.724750 6.399015 10.275966 -27.654003 3.098998 -2.674956 0.949145 -14.192766 22.078936 -6.719858 -0.809684 61.612368 -0.828109 12.421922 -15.858733 35.460283 -1.690337 7.132592 1.197333 -14.950528 
